<svg xmlns="http://www.w3.org/2000/svg" viewBox="0 0 800 400" width="800" height="400">
  <g fill="#d4af37" opacity="0.88">
    <path d="M118 142c28-18 62-22 94-12 18 6 32 20 38 38 8 24-2 50-24 64-30 18-68 14-96-6-22-16-28-48-12-84z"/>
    <path d="M248 88c34-8 72-2 98 18 20 16 28 42 22 68-8 38-42 62-80 58-36-4-64-32-68-68-4-32 10-62 28-76z"/>
    <path d="M388 72c42-6 88 8 112 38 18 24 20 58 6 86-16 32-52 52-88 46-40-6-72-38-80-76-6-30 14-58 50-94z"/>
    <path d="M548 108c22-14 52-16 76-4 22 10 36 32 36 56 0 28-18 52-44 62-32 12-68 2-88-24-16-22-12-52 20-90z"/>
    <path d="M92 228c18-8 40-6 56 6 14 10 22 28 18 44-6 24-28 40-52 38-26-2-46-22-48-48-2-22 10-40 26-40z"/>
    <path d="M198 248c32-12 70-8 96 12 22 18 30 48 20 74-12 30-44 48-76 42-34-6-60-34-64-68-4-32 12-58 24-60z"/>
    <path d="M338 218c38-10 82-4 108 22 20 22 24 54 12 80-14 30-48 50-82 44-38-6-68-36-72-72-4-34 16-64 34-74z"/>
    <path d="M488 248c28-8 60-2 78 18 16 16 20 40 12 60-10 26-38 42-66 36-30-6-52-30-56-58-4-26 12-48 32-56z"/>
    <path d="M612 198c24-12 54-10 72 8 16 16 18 42 6 62-14 24-44 36-68 26-28-12-42-42-36-68 6-24 18-38 26-28z"/>
    <path d="M142 318c20-6 44-2 58 14 12 14 14 34 6 48-10 18-32 28-54 24-24-4-42-24-40-48 2-18 16-32 30-38z"/>
    <path d="M268 302c34-8 72-2 94 20 18 18 22 46 10 68-14 26-46 40-76 32-32-8-56-36-58-68-2-30 16-54 30-52z"/>
    <path d="M428 288c30-6 64 4 82 26 14 18 16 44 6 64-12 24-40 38-68 32-30-6-54-30-56-58-2-26 14-48 36-64z"/>
    <path d="M562 318c22-8 48-4 62 12 12 14 14 36 4 52-12 20-36 30-58 24-24-6-40-26-38-50 2-20 16-36 30-38z"/>
  </g>
  <g fill="#b8922a" opacity="0.35">
    <circle cx="200" cy="100" r="3"/><circle cx="420" cy="80" r="2.5"/><circle cx="600" cy="140" r="2"/>
    <circle cx="320" cy="260" r="2.5"/><circle cx="520" cy="220" r="2"/><circle cx="150" cy="300" r="2"/>
  </g>
</svg>
