<svg xmlns="http://www.w3.org/2000/svg" viewBox="0 0 800 400" width="800" height="400">
  <rect width="800" height="400" fill="#1e4d72"/>
  <g fill="#2d8a5e" opacity="0.95">
    <path d="M95 130c32-20 72-24 108-10 22 8 38 28 42 52 6 34-14 68-48 86-38 20-86 10-112-18-20-22-18-58 10-110z"/>
    <path d="M235 75c40-10 86-2 114 24 24 20 32 52 24 82-10 42-48 72-92 66-44-6-78-38-84-76-6-36 14-68 38-96z"/>
    <path d="M385 58c48-8 100 10 128 44 22 28 24 68 10 100-16 38-54 62-94 54-44-8-78-44-84-86-6-36 18-68 40-112z"/>
    <path d="M555 95c26-16 60-18 88-4 26 12 42 38 40 66-2 32-26 58-58 68-36 14-76 2-98-26-18-24-14-58 28-104z"/>
    <path d="M88 225c20-10 46-8 62 8 16 12 24 32 18 50-8 28-32 46-58 42-28-2-50-26-48-52 2-22 16-40 26-48z"/>
    <path d="M205 240c36-14 78-10 106 14 24 20 32 54 22 84-12 34-48 54-82 46-38-8-66-38-70-74-4-34 14-62 24-70z"/>
    <path d="M348 210c42-12 90-6 118 26 22 24 26 58 14 88-14 34-52 56-90 48-42-8-72-40-76-80-4-38 18-70 34-82z"/>
    <path d="M502 238c32-10 68-4 88 22 18 18 22 46 12 68-12 30-42 48-72 40-32-6-56-32-60-60-4-28 14-52 32-70z"/>
    <path d="M628 188c28-14 62-12 82 10 18 18 20 46 8 68-14 28-46 42-72 32-30-12-44-44-38-72 6-26 18-42 20-38z"/>
    <path d="M138 315c22-8 48-4 64 16 14 16 16 38 8 54-10 20-34 32-56 26-24-6-42-28-40-54 2-20 16-36 24-42z"/>
    <path d="M268 298c38-10 80-4 104 24 20 20 24 50 12 74-14 30-48 46-80 38-34-8-60-38-62-72-2-32 16-58 26-64z"/>
    <path d="M432 282c34-8 72 2 92 28 16 20 18 48 8 70-12 26-42 42-70 36-32-6-56-32-58-62-2-28 14-50 28-72z"/>
    <path d="M568 312c24-10 52-6 68 14 14 16 16 40 6 58-12 22-38 34-62 28-26-6-44-28-42-54 2-22 16-38 30-46z"/>
  </g>
  <g fill="#d4af37" opacity="0.22">
    <circle cx="200" cy="95" r="2.5"/><circle cx="430" cy="78" r="2"/><circle cx="610" cy="135" r="2"/>
    <circle cx="330" cy="255" r="2"/><circle cx="520" cy="215" r="2"/>
  </g>
</svg>
